<svg width="184" height="42" viewBox="0 0 184 42" fill="none" xmlns="http://www.w3.org/2000/svg"><g clip-path="url(#a)"><path fill-rule="evenodd" clip-rule="evenodd" d="M11.7488 23.5519V37.6201L0 30.6909V10.9534L16.9937 1.08455L18.4624 4.0242L11.9586 7.80374L22.8681 18.0925V4.0242L34.6169 10.9534V30.6909L17.833 40.3498L16.1545 37.6201L22.4485 33.8406L11.7488 23.5519ZM3.35679 28.8012V12.8432L9.02137 9.48352L27.9033 27.3314V22.9219L26.0151 21.0321V9.69349L31.26 12.8432V28.8012L25.3857 32.1608L6.71358 14.3129V18.9324L8.60177 20.6122V31.9508L3.35679 28.8012Z" fill="#23E6A8"/><path d="M20.35 2.76375C20.35 4.38728 19.035 5.7034 17.4128 5.7034C15.7907 5.7034 14.4756 4.38728 14.4756 2.76375C14.4756 1.14023 15.7907 -0.175894 17.4128 -0.175894C19.035 -0.175894 20.35 1.14023 20.35 2.76375Z" fill="#23E6A8"/><path d="M20.35 38.6697C20.35 40.2932 19.035 41.6093 17.4128 41.6093C15.7907 41.6093 14.4756 40.2932 14.4756 38.6697C14.4756 37.0462 15.7907 35.7301 17.4128 35.7301C19.035 35.7301 20.35 37.0462 20.35 38.6697Z" fill="#23E6A8"/><path fill-rule="evenodd" clip-rule="evenodd" d="M11.7488 23.7671V37.8354L0 30.9062V11.1686L16.9937 1.2998L18.4624 4.23945L11.9586 8.01899L22.8681 18.3078V4.23945L34.6169 11.1686V30.9062L17.833 40.5651L16.1545 37.8354L22.4485 34.0559L11.7488 23.7671ZM3.35679 29.0165V13.0584L9.02137 9.69876L27.9033 27.5466V23.1372L26.0151 21.2474V9.90874L31.26 13.0584V29.0165L25.3857 32.376L6.71358 14.5282V19.1477L8.60177 20.8274V32.1661L3.35679 29.0165Z" fill="url(#b)"/><path d="M20.35 2.97908C20.35 4.60261 19.035 5.91873 17.4128 5.91873C15.7907 5.91873 14.4756 4.60261 14.4756 2.97908C14.4756 1.35556 15.7907 0.0394382 17.4128 0.0394382C19.035 0.0394382 20.35 1.35556 20.35 2.97908Z" fill="url(#c)"/><path d="M20.35 38.8843C20.35 40.5078 19.035 41.8239 17.4128 41.8239C15.7907 41.8239 14.4756 40.5078 14.4756 38.8843C14.4756 37.2608 15.7907 35.9447 17.4128 35.9447C19.035 35.9447 20.35 37.2608 20.35 38.8843Z" fill="url(#d)"/><path d="M52.6168 15.0272C54.1476 15.0272 55.3846 15.5147 56.3279 16.4896C57.2711 17.4492 57.7428 18.7956 57.7428 20.5289V28.0734H54.4955V20.97C54.4955 19.9485 54.2404 19.167 53.7301 18.6254C53.2199 18.0682 52.524 17.7896 51.6426 17.7896C50.7457 17.7896 50.0345 18.0682 49.5087 18.6254C48.9984 19.167 48.7433 19.9485 48.7433 20.97V28.0734H45.4961V15.2129H48.7433V16.8147C49.1763 16.2575 49.7252 15.8242 50.3901 15.5147C51.0705 15.1898 51.8127 15.0272 52.6168 15.0272ZM66.5365 28.2823C65.2995 28.2823 64.1861 28.0115 63.1965 27.4698C62.2069 26.9127 61.426 26.1312 60.8539 25.1252C60.2972 24.1193 60.0189 22.9586 60.0189 21.6432C60.0189 20.3277 60.3049 19.167 60.8771 18.1611C61.4647 17.1551 62.261 16.3814 63.2661 15.8396C64.2713 15.2826 65.3923 15.004 66.6293 15.004C67.8663 15.004 68.9874 15.2826 69.9925 15.8396C70.9977 16.3814 71.7863 17.1551 72.3583 18.1611C72.9459 19.167 73.2397 20.3277 73.2397 21.6432C73.2397 22.9586 72.9383 24.1193 72.3352 25.1252C71.7475 26.1312 70.9435 26.9127 69.9229 27.4698C68.9178 28.0115 67.789 28.2823 66.5365 28.2823ZM66.5365 25.4503C67.1241 25.4503 67.673 25.3109 68.1833 25.0324C68.709 24.7383 69.1266 24.3051 69.4359 23.7324C69.7451 23.1598 69.8998 22.4634 69.8998 21.6432C69.8998 20.4206 69.575 19.4842 68.9256 18.8342C68.2916 18.1688 67.5108 17.836 66.5829 17.836C65.6552 17.836 64.8742 18.1688 64.2403 18.8342C63.6218 19.4842 63.3125 20.4206 63.3125 21.6432C63.3125 22.8657 63.6141 23.8098 64.2171 24.4752C64.8356 25.1252 65.6088 25.4503 66.5365 25.4503ZM74.7867 21.5967C74.7867 20.2968 75.0419 19.1438 75.5521 18.1378C76.0779 17.132 76.7892 16.3581 77.6861 15.8165C78.5829 15.2748 79.5803 15.004 80.6781 15.004C81.5131 15.004 82.3095 15.1898 83.0672 15.5611C83.8248 15.9171 84.4278 16.3968 84.8763 17.0004V10.8952H88.1699V28.0734H84.8763V26.1698C84.4742 26.8043 83.9099 27.3151 83.1831 27.7019C82.4564 28.0889 81.6136 28.2823 80.6549 28.2823C79.5725 28.2823 78.5829 28.0037 77.6861 27.4467C76.7892 26.8895 76.0779 26.1079 75.5521 25.1021C75.0419 24.0806 74.7867 22.9122 74.7867 21.5967ZM84.8995 21.6432C84.8995 20.8539 84.7449 20.1806 84.4356 19.6236C84.1263 19.0509 83.7089 18.6176 83.1831 18.3236C82.6574 18.0141 82.0929 17.8593 81.4899 17.8593C80.8868 17.8593 80.3302 18.0063 79.8199 18.3004C79.3096 18.5944 78.8921 19.0278 78.5674 19.6003C78.2581 20.1575 78.1035 20.8229 78.1035 21.5967C78.1035 22.3705 78.2581 23.0515 78.5674 23.6396C78.8921 24.2121 79.3096 24.6533 79.8199 24.9627C80.3456 25.2722 80.9023 25.427 81.4899 25.427C82.0929 25.427 82.6574 25.28 83.1831 24.986C83.7089 24.6764 84.1263 24.2431 84.4356 23.686C84.7449 23.1134 84.8995 22.4324 84.8995 21.6432ZM103.287 21.3646C103.287 21.8288 103.256 22.2467 103.194 22.6181H93.8C93.8774 23.5467 94.202 24.274 94.7742 24.8003C95.3463 25.3264 96.0499 25.5895 96.8848 25.5895C98.091 25.5895 98.9492 25.071 99.4595 24.0342H102.962C102.591 25.2722 101.879 26.2937 100.828 27.0985C99.7764 27.8877 98.4853 28.2823 96.9545 28.2823C95.7174 28.2823 94.6041 28.0115 93.6145 27.4698C92.6403 26.9127 91.8749 26.1312 91.3182 25.1252C90.777 24.1193 90.5064 22.9586 90.5064 21.6432C90.5064 20.3123 90.777 19.1438 91.3182 18.1378C91.8594 17.132 92.6171 16.3581 93.5912 15.8165C94.5654 15.2748 95.6865 15.004 96.9545 15.004C98.176 15.004 99.2661 15.2671 100.225 15.7932C101.199 16.3195 101.949 17.07 102.475 18.045C103.016 19.0045 103.287 20.1111 103.287 21.3646ZM99.9233 20.436C99.9079 19.6003 99.6064 18.9348 99.0187 18.4396C98.4311 17.929 97.7122 17.6736 96.8617 17.6736C96.0576 17.6736 95.3773 17.9212 94.8206 18.4165C94.2794 18.8962 93.9469 19.5694 93.8232 20.436H99.9233Z" fill="#FFFFFF"/><path d="M121.001 15.1655C122.485 15.1655 123.691 15.6375 124.619 16.5816C125.562 17.5101 126.034 18.8643 126.034 20.644V28.0724H124.433V20.8297C124.433 19.4524 124.101 18.4 123.436 17.6727C122.771 16.9452 121.866 16.5816 120.723 16.5816C119.532 16.5816 118.58 16.9762 117.869 17.7655C117.158 18.5548 116.802 19.7 116.802 21.2011V28.0724H115.202V20.8297C115.202 19.4524 114.87 18.4 114.204 17.6727C113.54 16.9452 112.627 16.5816 111.468 16.5816C110.277 16.5816 109.327 16.9762 108.615 17.7655C107.903 18.5548 107.548 19.7 107.548 21.2011V28.0724H105.924V15.3976H107.548V17.5798C107.95 16.7905 108.522 16.1946 109.265 15.7923C110.006 15.3745 110.834 15.1655 111.746 15.1655C112.844 15.1655 113.803 15.4286 114.622 15.9548C115.457 16.481 116.061 17.2548 116.432 18.2762C116.771 17.2703 117.351 16.5042 118.171 15.978C119.006 15.4364 119.949 15.1655 121.001 15.1655ZM128.898 21.7119C128.898 20.4119 129.153 19.2744 129.663 18.2994C130.189 17.3089 130.908 16.5506 131.82 16.0245C132.748 15.4828 133.791 15.2119 134.951 15.2119C136.158 15.2119 137.193 15.4905 138.06 16.0476C138.941 16.6048 139.575 17.3167 139.961 18.1833V15.3976H141.585V28.0724H139.961V25.2635C139.559 26.1302 138.918 26.8499 138.036 27.4224C137.17 27.9796 136.134 28.2581 134.929 28.2581C133.784 28.2581 132.748 27.9873 131.82 27.4457C130.908 26.904 130.189 26.138 129.663 25.1475C129.153 24.1571 128.898 23.0119 128.898 21.7119ZM139.961 21.735C139.961 20.7137 139.753 19.8161 139.335 19.0422C138.918 18.2685 138.346 17.6727 137.618 17.2548C136.908 16.8369 136.119 16.628 135.253 16.628C134.356 16.628 133.552 16.8292 132.841 17.2316C132.129 17.6339 131.565 18.2221 131.148 18.9958C130.745 19.7541 130.544 20.6595 130.544 21.7119C130.544 22.7487 130.745 23.6617 131.148 24.4511C131.565 25.2249 132.129 25.8207 132.841 26.2386C133.552 26.6409 134.356 26.8421 135.253 26.8421C136.119 26.8421 136.908 26.6332 137.618 26.2153C138.346 25.7975 138.918 25.2017 139.335 24.4278C139.753 23.6541 139.961 22.7565 139.961 21.735ZM149.791 26.4939L154.059 15.3976H155.776L150.695 28.0724H148.864L143.783 15.3976H145.523L149.791 26.4939ZM169.434 21.085C169.434 21.6422 169.418 22.0677 169.387 22.3619H158.881C158.927 23.3213 159.159 24.1416 159.576 24.8225C159.993 25.5035 160.543 26.0219 161.224 26.3778C161.903 26.7183 162.646 26.8886 163.45 26.8886C164.501 26.8886 165.383 26.6332 166.094 26.1225C166.82 25.6117 167.3 24.9231 167.532 24.0565H169.248C168.939 25.2945 168.274 26.3081 167.253 27.0975C166.248 27.8712 164.981 28.2581 163.45 28.2581C162.259 28.2581 161.193 27.9951 160.248 27.4689C159.305 26.9272 158.564 26.1689 158.022 25.1939C157.497 24.2035 157.234 23.0505 157.234 21.735C157.234 20.4196 157.497 19.2667 158.022 18.2762C158.548 17.2857 159.283 16.5274 160.226 16.0012C161.169 15.4751 162.243 15.2119 163.45 15.2119C164.656 15.2119 165.708 15.4751 166.605 16.0012C167.517 16.5274 168.212 17.2393 168.692 18.1369C169.187 19.0191 169.434 20.0018 169.434 21.085ZM167.787 21.0386C167.803 20.0946 167.61 19.2898 167.208 18.6244C166.82 17.9589 166.287 17.456 165.607 17.1155C164.927 16.7751 164.184 16.6048 163.381 16.6048C162.174 16.6048 161.146 16.9916 160.295 17.7655C159.445 18.5392 158.974 19.6303 158.881 21.0386H167.787ZM178.343 15.1655C179.858 15.1655 181.094 15.6375 182.053 16.5816C183.012 17.5101 183.491 18.8643 183.491 20.644V28.0724H181.891V20.8297C181.891 19.4524 181.543 18.4 180.848 17.6727C180.167 16.9452 179.231 16.5816 178.041 16.5816C176.819 16.5816 175.845 16.9685 175.119 17.7422C174.391 18.5161 174.028 19.6535 174.028 21.1547V28.0724H172.405V15.3976H174.028V17.5566C174.431 16.7828 175.01 16.1946 175.767 15.7923C176.526 15.3745 177.384 15.1655 178.343 15.1655Z" fill="#FFFFFF"/></g><defs><linearGradient id="b" x1="17.3084" y1="0.0399484" x2="17.3084" y2="41.8249" gradientUnits="userSpaceOnUse"><stop stop-color="#4783F2"/><stop offset="1" stop-color="#23E6A8"/></linearGradient><linearGradient id="c" x1="17.3079" y1="0.0394382" x2="17.3079" y2="41.8243" gradientUnits="userSpaceOnUse"><stop stop-color="#4783F2"/><stop offset="1" stop-color="#23E6A8"/></linearGradient><linearGradient id="d" x1="17.3079" y1="0.0389557" x2="17.3079" y2="41.8239" gradientUnits="userSpaceOnUse"><stop stop-color="#4783F2"/><stop offset="1" stop-color="#23E6A8"/></linearGradient><clipPath id="a"><rect width="184" height="42" fill="white"/></clipPath></defs></svg>